# xmcd
#
# Track frame offsets: 
#        150
#        37763
#        74214
#        116814
#        146414
#        200082
#        222456
#        252156
#
# Disc length: 3923 seconds
#
# Revision: 4
# Processed by: cddbd v1.5.2PL0 Copyright (c) Steve Scherf et al.
# Submitted via: ExactAudioCopy v1.0b1
#
DISCID=810f5108
DTITLE=Third World Love - Sketch Of Tel Aviv
DYEAR=2006
DGENRE=Jazz
TTITLE0=A Touch Of Tahini (Tsafdina)
TTITLE1=Sketch Of Tel Aviv
TTITLE2=Suite African #2
TTITLE3=Hareshut
TTITLE4=S`ai N`wai
TTITLE5=Horizon (Kav Haofek)
TTITLE6=Suzanna (Aka Rock Ballad)
TTITLE7=Three Four (Not A Jazz Tune)
EXTD=
EXTT0=
EXTT1=
EXTT2=
EXTT3=
EXTT4=
EXTT5=
EXTT6=
EXTT7=
PLAYORDER=
